<mxfile host="app.diagrams.net" modified="2024-03-23T01:58:27.578Z" agent="Mozilla/5.0 (Windows NT 10.0; Win64; x64) AppleWebKit/537.36 (KHTML, like Gecko) Chrome/118.0.0.0 Safari/537.36 Edg/118.0.2088.76" etag="zuVB7-SrwqG5he4NZCd-" version="24.0.7" type="github">
  <diagram name="第 1 页" id="AXDuTPOKBofO2-NumYbh">
    <mxGraphModel dx="1173" dy="738" grid="1" gridSize="10" guides="1" tooltips="1" connect="1" arrows="1" fold="1" page="1" pageScale="1" pageWidth="827" pageHeight="1169" math="0" shadow="0">
      <root>
        <mxCell id="0" />
        <mxCell id="1" parent="0" />
        <mxCell id="61OYUtFmyXOMqLUHNU4D-1" value="" style="rounded=0;whiteSpace=wrap;html=1;" vertex="1" parent="1">
          <mxGeometry x="160" y="330" width="610" height="150" as="geometry" />
        </mxCell>
        <mxCell id="61OYUtFmyXOMqLUHNU4D-2" value="数据预处理" style="text;html=1;align=center;verticalAlign=middle;resizable=0;points=[];autosize=1;strokeColor=none;fillColor=none;" vertex="1" parent="1">
          <mxGeometry x="160" y="330" width="80" height="30" as="geometry" />
        </mxCell>
        <mxCell id="61OYUtFmyXOMqLUHNU4D-3" value="处理前" style="text;html=1;align=center;verticalAlign=middle;resizable=0;points=[];autosize=1;strokeColor=none;fillColor=none;" vertex="1" parent="1">
          <mxGeometry x="170" y="360" width="60" height="30" as="geometry" />
        </mxCell>
        <mxCell id="61OYUtFmyXOMqLUHNU4D-4" value="处理后" style="text;html=1;align=center;verticalAlign=middle;resizable=0;points=[];autosize=1;strokeColor=none;fillColor=none;" vertex="1" parent="1">
          <mxGeometry x="170" y="408" width="60" height="30" as="geometry" />
        </mxCell>
        <mxCell id="61OYUtFmyXOMqLUHNU4D-5" value="The System must be able to display several entity simultaneously." style="text;html=1;align=center;verticalAlign=middle;resizable=0;points=[];autosize=1;strokeColor=none;fillColor=none;" vertex="1" parent="1">
          <mxGeometry x="205" y="435" width="370" height="30" as="geometry" />
        </mxCell>
        <mxCell id="61OYUtFmyXOMqLUHNU4D-6" value="The System must be able to display several entities (cases, suspects) simultaneously." style="text;html=1;align=center;verticalAlign=middle;resizable=0;points=[];autosize=1;strokeColor=none;fillColor=none;" vertex="1" parent="1">
          <mxGeometry x="200" y="380" width="480" height="30" as="geometry" />
        </mxCell>
      </root>
    </mxGraphModel>
  </diagram>
</mxfile>
